<svg xmlns="http://www.w3.org/2000/svg" viewBox="0 0 800 500"><defs><radialGradient id="bg"><stop stop-color="#d9d1a0"/><stop offset="1" stop-color="#424935"/></radialGradient><radialGradient id="sphere" cx="30%" cy="25%"><stop stop-color="#d9d1a0"/><stop offset=".6" stop-color="#424935"/><stop offset="1" stop-color="#080810"/></radialGradient><filter id="glow"><feGaussianBlur stdDeviation="9"/></filter><filter id="texture"><feTurbulence type="fractalNoise" baseFrequency=".035" numOctaves="4" seed="8"/><feColorMatrix type="saturate" values="0"/><feComposite in="SourceGraphic" operator="arithmetic" k1=".6" k2=".6" k3=".13"/></filter><clipPath id="disc"><circle cx="400" cy="250" r="140"/></clipPath></defs><rect width="800" height="500" fill="#0b0911"/><ellipse cx="400" cy="250" rx="350" ry="220" fill="url(#bg)" opacity=".5"/><circle cx="410" cy="190" r="0.7" fill="#ecd5a0" opacity="0.80"/><circle cx="414" cy="315" r="1.4" fill="#ecd5a0" opacity="0.37"/><circle cx="303" cy="216" r="1.4" fill="#ecd5a0" opacity="0.66"/><circle cx="29" cy="419" r="0.7" fill="#ecd5a0" opacity="0.60"/><circle cx="38" cy="244" r="0.7" fill="#ecd5a0" opacity="0.79"/><circle cx="760" cy="183" r="0.7" fill="#ecd5a0" opacity="0.35"/><circle cx="727" cy="337" r="1.4" fill="#ecd5a0" opacity="0.24"/><circle cx="621" cy="36" r="1" fill="#ecd5a0" opacity="0.72"/><circle cx="772" cy="130" r="0.7" fill="#ecd5a0" opacity="0.64"/><circle cx="769" cy="263" r="0.7" fill="#ecd5a0" opacity="0.53"/><circle cx="38" cy="83" r="0.7" fill="#ecd5a0" opacity="0.75"/><circle cx="725" cy="111" r="0.7" fill="#ecd5a0" opacity="0.36"/><circle cx="250" cy="337" r="0.7" fill="#ecd5a0" opacity="0.56"/><circle cx="206" cy="242" r="0.7" fill="#ecd5a0" opacity="0.38"/><circle cx="169" cy="74" r="1.4" fill="#ecd5a0" opacity="0.26"/><circle cx="42" cy="359" r="1.4" fill="#ecd5a0" opacity="0.50"/><circle cx="424" cy="137" r="0.7" fill="#ecd5a0" opacity="0.25"/><circle cx="99" cy="254" r="1.4" fill="#ecd5a0" opacity="0.44"/><circle cx="565" cy="401" r="1" fill="#ecd5a0" opacity="0.52"/><circle cx="34" cy="355" r="1" fill="#ecd5a0" opacity="0.39"/><circle cx="162" cy="433" r="0.7" fill="#ecd5a0" opacity="0.63"/><circle cx="757" cy="461" r="1.4" fill="#ecd5a0" opacity="0.72"/><circle cx="131" cy="358" r="1.4" fill="#ecd5a0" opacity="0.28"/><circle cx="443" cy="355" r="1.4" fill="#ecd5a0" opacity="0.65"/><circle cx="643" cy="290" r="1" fill="#ecd5a0" opacity="0.56"/><circle cx="121" cy="143" r="0.7" fill="#ecd5a0" opacity="0.46"/><circle cx="771" cy="255" r="1.4" fill="#ecd5a0" opacity="0.63"/><circle cx="480" cy="62" r="1.4" fill="#ecd5a0" opacity="0.37"/><circle cx="236" cy="371" r="0.7" fill="#ecd5a0" opacity="0.37"/><circle cx="740" cy="186" r="1.4" fill="#ecd5a0" opacity="0.43"/><circle cx="321" cy="404" r="1" fill="#ecd5a0" opacity="0.64"/><circle cx="239" cy="302" r="0.7" fill="#ecd5a0" opacity="0.33"/><circle cx="250" cy="112" r="1" fill="#ecd5a0" opacity="0.60"/><circle cx="85" cy="141" r="1.4" fill="#ecd5a0" opacity="0.54"/><circle cx="178" cy="272" r="1" fill="#ecd5a0" opacity="0.27"/><circle cx="413" cy="366" r="1.4" fill="#ecd5a0" opacity="0.27"/><circle cx="477" cy="326" r="1.4" fill="#ecd5a0" opacity="0.63"/><circle cx="585" cy="416" r="1" fill="#ecd5a0" opacity="0.44"/><circle cx="385" cy="477" r="1" fill="#ecd5a0" opacity="0.69"/><circle cx="50" cy="111" r="1.4" fill="#ecd5a0" opacity="0.63"/><circle cx="177" cy="346" r="0.7" fill="#ecd5a0" opacity="0.51"/><circle cx="685" cy="110" r="1" fill="#ecd5a0" opacity="0.64"/><circle cx="93" cy="41" r="1.4" fill="#ecd5a0" opacity="0.60"/><circle cx="730" cy="200" r="0.7" fill="#ecd5a0" opacity="0.61"/><circle cx="335" cy="165" r="0.7" fill="#ecd5a0" opacity="0.36"/><circle cx="408" cy="333" r="0.7" fill="#ecd5a0" opacity="0.70"/><circle cx="743" cy="163" r="1.4" fill="#ecd5a0" opacity="0.55"/><circle cx="330" cy="226" r="1" fill="#ecd5a0" opacity="0.61"/><circle cx="264" cy="69" r="1.4" fill="#ecd5a0" opacity="0.48"/><circle cx="471" cy="139" r="1" fill="#ecd5a0" opacity="0.31"/><circle cx="505" cy="169" r="0.7" fill="#ecd5a0" opacity="0.35"/><circle cx="502" cy="311" r="1" fill="#ecd5a0" opacity="0.23"/><circle cx="753" cy="438" r="1.4" fill="#ecd5a0" opacity="0.52"/><circle cx="665" cy="120" r="1" fill="#ecd5a0" opacity="0.68"/><circle cx="350" cy="207" r="1.4" fill="#ecd5a0" opacity="0.30"/><circle cx="36" cy="133" r="0.7" fill="#ecd5a0" opacity="0.72"/><circle cx="546" cy="225" r="0.7" fill="#ecd5a0" opacity="0.22"/><circle cx="624" cy="291" r="1" fill="#ecd5a0" opacity="0.22"/><circle cx="297" cy="338" r="0.7" fill="#ecd5a0" opacity="0.53"/><circle cx="558" cy="392" r="0.7" fill="#ecd5a0" opacity="0.43"/><circle cx="210" cy="42" r="1.4" fill="#ecd5a0" opacity="0.40"/><circle cx="542" cy="373" r="0.7" fill="#ecd5a0" opacity="0.49"/><circle cx="601" cy="295" r="1.4" fill="#ecd5a0" opacity="0.22"/><circle cx="398" cy="112" r="1" fill="#ecd5a0" opacity="0.49"/><circle cx="694" cy="431" r="1" fill="#ecd5a0" opacity="0.21"/><circle cx="337" cy="74" r="1" fill="#ecd5a0" opacity="0.43"/><circle cx="88" cy="298" r="1" fill="#ecd5a0" opacity="0.60"/><circle cx="755" cy="210" r="1.4" fill="#ecd5a0" opacity="0.68"/><circle cx="107" cy="56" r="1" fill="#ecd5a0" opacity="0.43"/><circle cx="184" cy="462" r="1" fill="#ecd5a0" opacity="0.30"/><circle cx="182" cy="65" r="0.7" fill="#ecd5a0" opacity="0.71"/><circle cx="342" cy="177" r="1" fill="#ecd5a0" opacity="0.39"/><circle cx="36" cy="119" r="0.7" fill="#ecd5a0" opacity="0.74"/><circle cx="728" cy="80" r="0.7" fill="#ecd5a0" opacity="0.75"/><circle cx="757" cy="161" r="1.4" fill="#ecd5a0" opacity="0.71"/><circle cx="300" cy="197" r="0.7" fill="#ecd5a0" opacity="0.65"/><circle cx="503" cy="414" r="1.4" fill="#ecd5a0" opacity="0.66"/><circle cx="433" cy="267" r="1.4" fill="#ecd5a0" opacity="0.35"/><circle cx="722" cy="335" r="1.4" fill="#ecd5a0" opacity="0.62"/><circle cx="606" cy="374" r="0.7" fill="#ecd5a0" opacity="0.74"/><circle cx="271" cy="431" r="0.7" fill="#ecd5a0" opacity="0.65"/><circle cx="555" cy="47" r="0.7" fill="#ecd5a0" opacity="0.70"/><circle cx="349" cy="164" r="1" fill="#ecd5a0" opacity="0.35"/><circle cx="319" cy="158" r="1" fill="#ecd5a0" opacity="0.26"/><circle cx="290" cy="313" r="1" fill="#ecd5a0" opacity="0.29"/><circle cx="577" cy="300" r="1.4" fill="#ecd5a0" opacity="0.21"/><circle cx="683" cy="139" r="1" fill="#ecd5a0" opacity="0.76"/><circle cx="444" cy="327" r="1.4" fill="#ecd5a0" opacity="0.47"/><circle cx="690" cy="133" r="0.7" fill="#ecd5a0" opacity="0.70"/><circle cx="82" cy="171" r="1.4" fill="#ecd5a0" opacity="0.42"/><circle cx="400" cy="190" r="78" fill="url(#sphere)" opacity=".7"/><path d="M0 355 Q180 235 380 350 T800 340 V500H0Z" fill="#121b1c"/><path d="M0 405 Q240 320 500 410 T800 365V500H0Z" fill="#0b1317"/><path d="M130 405Q160 290 130 145" fill="none" stroke="#d9d1a0" opacity=".7" stroke-width="3"/><ellipse cx="149" cy="190" rx="24" ry="9" transform="rotate(30 130 190)" fill="#d9d1a0" opacity=".5"/><ellipse cx="111" cy="217" rx="24" ry="9" transform="rotate(-30 130 217)" fill="#d9d1a0" opacity=".5"/><ellipse cx="149" cy="244" rx="24" ry="9" transform="rotate(30 130 244)" fill="#d9d1a0" opacity=".5"/><ellipse cx="111" cy="271" rx="24" ry="9" transform="rotate(-30 130 271)" fill="#d9d1a0" opacity=".5"/><ellipse cx="149" cy="298" rx="24" ry="9" transform="rotate(30 130 298)" fill="#d9d1a0" opacity=".5"/><ellipse cx="111" cy="325" rx="24" ry="9" transform="rotate(-30 130 325)" fill="#d9d1a0" opacity=".5"/><ellipse cx="149" cy="352" rx="24" ry="9" transform="rotate(30 130 352)" fill="#d9d1a0" opacity=".5"/><path d="M650 405Q680 290 650 145" fill="none" stroke="#d9d1a0" opacity=".7" stroke-width="3"/><ellipse cx="669" cy="190" rx="24" ry="9" transform="rotate(30 650 190)" fill="#d9d1a0" opacity=".5"/><ellipse cx="631" cy="217" rx="24" ry="9" transform="rotate(-30 650 217)" fill="#d9d1a0" opacity=".5"/><ellipse cx="669" cy="244" rx="24" ry="9" transform="rotate(30 650 244)" fill="#d9d1a0" opacity=".5"/><ellipse cx="631" cy="271" rx="24" ry="9" transform="rotate(-30 650 271)" fill="#d9d1a0" opacity=".5"/><ellipse cx="669" cy="298" rx="24" ry="9" transform="rotate(30 650 298)" fill="#d9d1a0" opacity=".5"/><ellipse cx="631" cy="325" rx="24" ry="9" transform="rotate(-30 650 325)" fill="#d9d1a0" opacity=".5"/><ellipse cx="669" cy="352" rx="24" ry="9" transform="rotate(30 650 352)" fill="#d9d1a0" opacity=".5"/></svg>